<?xml version="1.0" encoding="utf-8"?>
<!-- Generator: Adobe Illustrator 21.0.2, SVG Export Plug-In . SVG Version: 6.00 Build 0)  -->
<svg version="1.1" id="图层_1" xmlns="http://www.w3.org/2000/svg" xmlns:xlink="http://www.w3.org/1999/xlink" x="0px" y="0px"
	 viewBox="0 0 272 297.7" style="enable-background:new 0 0 272 297.7;" xml:space="preserve">
<style type="text/css">
	.st0{fill:#FFFFFF;stroke:#5E6C70;stroke-width:4.7377;}
	.st1{fill:#FFFFFF;stroke:#5E6C70;stroke-width:3.9695;}
	.st2{fill:#00AD85;}
	.st3{fill:#000A12;}
	.st4{fill:#F8C40F;}
	.st5{fill:none;stroke:#5E6C70;stroke-width:3.9695;}
	.st6{fill:#FFFFFF;}
	.st7{fill:#EF6945;}
	.st8{fill:#00AF85;}
	.st9{fill:#FFFFFF;stroke:#5E6C70;stroke-width:4.8361;}
	.st10{fill:#00AF87;}
</style>
<g>
	<path class="st0" d="M151.7,119.5"/>
	<path class="st1" d="M151.6,121.5"/>
	<path class="st2" d="M41.5,188.2c-5.4,0-8.5,3.1-8.5,8.4c0,7.8,7.8,14.2,17.5,14.2c0,0,44.4-0.4,45.2-0.7
		c-0.6-0.6-47.4-20.4-47.4-20.4C45.9,188.7,43.6,188.2,41.5,188.2z"/>
	<g>
		<g>
			<g>
				<path class="st2" d="M167.3,217.8c0,1.5,1.2,2.7,2.7,2.7s2.7-1.2,2.7-2.7s-1.2-2.7-2.7-2.7S167.3,216.3,167.3,217.8z"/>
			</g>
		</g>
		<g>
			<g>
				<g>
					<path class="st2" d="M108.4,223.8c-2.8,0-5.2,0.5-7.4,1.6l-0.1,0.1l0.1,3.9l0.3-0.2c2.1-1.2,4.1-1.8,6-1.8
						c3.3,0,5.2,1.9,5.2,5.2c0,0,0,0.1,0,0.2c-0.4,0-2.6,0-2.6,0c-7.5,0-11.6,2.7-11.6,7.6c0,3.9,3,6.7,7.2,6.7
						c3.1,0,5.5-1.2,7.2-3.5c0,0.9,0,3.2,0,3.2h4.1v-13.5C116.8,227,114,223.8,108.4,223.8z M112.4,237.3c0,3.8-2.3,6.3-5.9,6.3
						c-2.2,0-3.7-1.4-3.7-3.5c0-2.7,2.6-4.2,7.3-4.2c0,0,1.9,0,2.3,0C112.4,236.2,112.4,237.3,112.4,237.3z"/>
				</g>
			</g>
		</g>
		<g>
			<g>
				<g>
					<path class="st2" d="M136,213.7c0,0,0,12.4,0,13.7c-1.7-2.3-4-3.6-7-3.6c-5.5,0-9.2,4.6-9.2,11.3c0,7,3.8,11.8,9.2,11.8
						c3.2,0,5.7-1.4,7.4-4.2c0,1.1,0,3.8,0,3.8h4.2v-33H136V213.7z M130.1,243.3c-3.4,0-5.6-3-5.6-7.8s2.2-8,5.5-8c3.7,0,6,3,6,8
						C136,240.2,133.7,243.3,130.1,243.3z"/>
				</g>
			</g>
		</g>
		<g>
			<g>
				<path class="st2" d="M160.7,224.4l-6.4,12.9l-5.9-12.9h-5.1l10.9,22.3l11.2-22.3H160.7z"/>
			</g>
		</g>
		<g>
			<g>
				<path class="st2" d="M172.1,224.4h-4.3v22.3h4.5v-22.3H172.1z"/>
			</g>
		</g>
		<g>
			<g>
				<path class="st2" d="M177.6,230.1c0,3.1,2.2,4.8,6.1,6.7c2.5,1.2,3.8,2,3.8,3.7c0,1.8-1.6,2.9-4.1,2.9c-1.8,0-3.7-0.5-5.7-1.5
					l-0.3-0.2l-0.1,3.9l0.2,0.1c1.9,0.7,3.8,1.1,5.8,1.1c5.5,0,9.1-2.6,9.1-6.7c0-3.4-2.3-5.1-6.2-7c-2.9-1.3-4.1-2.1-4.1-3.6
					c0-1.4,1.3-2.2,3.4-2.2c1.9,0,3.7,0.4,5.4,1.2l0.3,0.2l0.2-3.9l-0.2-0.1c-1.9-0.5-3.7-0.8-5.5-0.8
					C180.9,224.1,177.6,226.5,177.6,230.1z"/>
			</g>
		</g>
		<g>
			<g>
				<g>
					<path class="st2" d="M206.5,223.8c-6.8,0-11,4.5-11,11.7s4.2,11.7,11,11.7s11.1-4.5,11.1-11.7S213.3,223.8,206.5,223.8z
						 M206.5,243.5c-3.8,0-6.3-3.2-6.3-8s2.5-8.1,6.3-8.1s6.3,3.2,6.3,8.1C212.8,240.4,210.4,243.5,206.5,243.5z"/>
				</g>
			</g>
		</g>
		<g>
			<g>
				<path class="st2" d="M225.9,228c0-1.3,0-3.6,0-3.6h-4.1v22.3h4.5v-11.2c0-4.7,2-7.3,5.5-7.3c0.5,0,1,0.1,1.6,0.2l0.3,0.1
					l0.1-4.4L232,224C229.4,224,227.2,225.4,225.9,228z"/>
			</g>
		</g>
	</g>
	<g>
		<g>
			<g>
				<path class="st3" d="M39.5,217.6l-4.1,1.4c0,0,0,4.9,0,5.3c-0.4,0-4.5,0-4.5,0v3.6c0,0,4,0,4.4,0c0,0.5,0,11.5,0,11.5
					c0,5.4,1.9,7.7,6.4,7.7c1.2,0,2.3-0.1,3.4-0.4h0.2V243l-0.3,0.1c-0.9,0.3-1.6,0.5-2.1,0.5c-2.1,0-2.9-1.2-2.9-4.5
					c0,0,0-10.6,0-11.1c0.4,0,5.2,0,5.2,0v-3.6c0,0-4.8,0-5.2,0c0-0.4,0-6.8,0-6.8H39.5z"/>
			</g>
		</g>
		<g>
			<g>
				<path class="st3" d="M53.7,228c0-1.3,0-3.6,0-3.6h-4.1v22.3H54v-11.2c0-4.7,2-7.3,5.5-7.3c0.5,0,1,0.1,1.6,0.2l0.3,0.1l0.1-4.4
					l-1.9-0.1C57.1,224,55,225.4,53.7,228z"/>
			</g>
		</g>
		<g>
			<g>
				<g>
					<path class="st3" d="M85.9,223.8c-3.1,0-5.7,1.5-7.5,4.1c0-1.1,0-3.6,0-3.6h-4.1v31.4h4.5c0,0,0-11,0-12.2
						c1.6,2.2,4,3.4,6.9,3.4c5.7,0,9.4-4.7,9.4-11.9C95.2,228.4,91.5,223.8,85.9,223.8z M84.7,243.4c-3.6,0-5.8-3.1-5.8-8
						c0-4.7,2.4-7.8,6-7.8c3.5,0,5.6,2.9,5.6,7.8C90.4,240.3,88.2,243.4,84.7,243.4z"/>
				</g>
			</g>
		</g>
		<g>
			<g>
				<path class="st3" d="M69.7,224.4h-4.3v22.3H70v-22.3H69.7z"/>
			</g>
		</g>
		<g>
			<g>
				<path class="st3" d="M65,217.8c0,1.5,1.2,2.7,2.7,2.7s2.7-1.2,2.7-2.7s-1.2-2.7-2.7-2.7S65,216.3,65,217.8z"/>
			</g>
		</g>
	</g>
	<g>
		<g>
			<g>
				<path class="st4" d="M94.3,132.1c12.7-1.6,48.7-2.8,38.9,49.3l11.2-0.9c-4.9-32.1,5.4-48.4,37.4-50
					C128.6,101,98.3,131.6,94.3,132.1z"/>
			</g>
		</g>
		<g>
			<g>
				<path class="st5" d="M152.6,120.9"/>
			</g>
		</g>
		<g>
			<g>
				<path class="st6" d="M142.8,173.2c5.8,15.8,23.4,23.8,39.1,18c15.8-5.8,23.9-23.4,18-39.1c-5.8-15.8-23.4-23.8-39.1-18
					C145.1,139.8,137,157.4,142.8,173.2z"/>
			</g>
		</g>
		<g>
			<g>
				<path class="st6" d="M134.3,162.5c0,16.8-13.6,30.5-30.5,30.5c-16.8,0-30.5-13.6-30.5-30.5c0-16.8,13.6-30.5,30.5-30.5
					S134.3,145.6,134.3,162.5z"/>
			</g>
		</g>
		<g>
			<g>
				<path class="st7" d="M108.3,162.2c0,3.1-2.5,5.6-5.6,5.6s-5.6-2.5-5.6-5.6s2.5-5.6,5.6-5.6C105.8,156.5,108.3,159.1,108.3,162.2
					z"/>
			</g>
		</g>
		<g>
			<g>
				<path class="st8" d="M176.2,162.2c0,3.1-2.5,5.6-5.6,5.6s-5.6-2.5-5.6-5.6s2.5-5.6,5.6-5.6C173.7,156.5,176.2,159.1,176.2,162.2
					z"/>
			</g>
		</g>
		<g>
			<g>
				<g>
					<path class="st3" d="M197.9,142.4c1.6-6.8,6.7-13.5,6.7-13.5H182c-12.7-8.2-28.1-12.5-45.2-12.5c-17.7,0-33.7,4.5-46.3,12.7
						H69.3c0,0,5,6.7,6.6,13.4c-4.1,5.6-6.6,12.5-6.6,20c0,18.7,15.2,33.9,33.9,33.9c10.7,0,20.2-5,26.4-12.7l7.2,10.8l7.3-10.9
						c3.3,4.2,7.5,7.5,12.4,9.8c8.2,3.8,17.4,4.2,25.9,1c17.5-6.5,26.5-26,20.1-43.5C201.3,147.7,199.8,144.9,197.9,142.4z
						 M169.6,128.7c-3.6,0.1-7.2,0.8-10.7,2.1c-8.5,3.1-15.3,9.4-19,17.6c-1.7,3.7-2.7,7.6-3,11.6c-1.3-17.3-15.5-31-33.1-31.4
						c9.7-4.1,20.9-6.4,32.9-6.4C148.9,122.2,159.9,124.4,169.6,128.7z M103.2,189.5c-14.9,0-27.1-12.1-27.1-27s12.1-27.1,27.1-27.1
						c14.9,0,27,12.1,27,27.1C130.2,177.4,118.1,189.5,103.2,189.5z M180.1,188c-6.8,2.5-14.1,2.2-20.7-0.8c-6.6-3-11.6-8.4-14-15.2
						l0,0c-2.5-6.8-2.2-14.1,0.8-20.7c3-6.6,8.4-11.6,15.2-14.1c14-5.2,29.6,2,34.8,16C201.2,167.2,194.1,182.8,180.1,188z"/>
				</g>
			</g>
			<g>
				<g>
					<path class="st3" d="M102.7,145.4c-9.2,0-16.8,7.5-16.8,16.7s7.5,16.7,16.8,16.7c9.2,0,16.7-7.5,16.7-16.7
						C119.5,152.9,112,145.4,102.7,145.4z M102.7,173.1c-6.1,0-11-4.9-11-11c0-6,4.9-11,11-11c6,0,11,4.9,11,11
						C113.7,168.2,108.8,173.1,102.7,173.1z"/>
				</g>
			</g>
			<g>
				<g>
					<path class="st3" d="M170.6,145.4c-9.2,0-16.7,7.5-16.7,16.7s7.5,16.7,16.7,16.7s16.7-7.5,16.7-16.7
						C187.4,152.9,179.9,145.4,170.6,145.4z M170.6,173.1c-6.1,0-11-4.9-11-11c0-6,4.9-11,11-11c6,0,11,4.9,11,11
						C181.6,168.2,176.7,173.1,170.6,173.1z"/>
				</g>
			</g>
		</g>
	</g>
	<path class="st9" d="M152.2,116.5"/>
	<g>
		<path class="st3" d="M211.6,136.7c-0.7,0-1.4-0.2-2-0.5s-1.1-0.8-1.5-1.5c-0.4-0.6-0.6-1.3-0.6-2.1c0-0.7,0.2-1.4,0.5-2
			s0.8-1.1,1.5-1.5c0.6-0.4,1.4-0.6,2.1-0.6c0.8,0,1.4,0.2,2.1,0.5c0.6,0.3,1.1,0.8,1.5,1.4c0.4,0.6,0.6,1.3,0.6,2.1
			c0,0.7-0.2,1.4-0.5,2s-0.8,1.1-1.5,1.5C213.1,136.6,212.4,136.7,211.6,136.7z M211.6,135.7c0.9,0,1.6-0.3,2.2-0.9
			c0.6-0.6,0.8-1.3,0.8-2.2s-0.3-1.6-0.8-2.2c-0.6-0.6-1.3-0.9-2.2-0.9c-0.6,0-1.1,0.1-1.5,0.4c-0.5,0.3-0.8,0.6-1.1,1.1
			s-0.4,1-0.4,1.6s0.1,1.1,0.4,1.5c0.2,0.5,0.6,0.8,1,1.1C210.5,135.6,211,135.7,211.6,135.7z M210,130.6h1.5c0.5,0,0.9,0.1,1.2,0.4
			c0.3,0.2,0.4,0.6,0.4,1c0,0.5-0.2,0.9-0.6,1.1l0.8,1.4h-1.2l-0.6-1.1H211v1.1h-1V130.6z M211.2,132.5h0.4c0.2,0,0.4,0,0.5-0.1
			s0.1-0.2,0.1-0.4c0-0.3-0.2-0.4-0.6-0.4h-0.4V132.5z"/>
	</g>
	<g>
		<path class="st2" d="M241.9,230.4c-0.7,0-1.4-0.2-2-0.5s-1.1-0.8-1.5-1.5c-0.4-0.6-0.6-1.3-0.6-2.1c0-0.7,0.2-1.4,0.5-2
			s0.8-1.1,1.5-1.5c0.6-0.4,1.4-0.6,2.1-0.6c0.8,0,1.4,0.2,2.1,0.5c0.6,0.3,1.1,0.8,1.5,1.4c0.4,0.6,0.6,1.3,0.6,2.1
			c0,0.7-0.2,1.4-0.5,2s-0.8,1.1-1.5,1.5C243.4,230.2,242.7,230.4,241.9,230.4z M241.9,229.3c0.9,0,1.6-0.3,2.2-0.9
			c0.6-0.6,0.8-1.3,0.8-2.2s-0.3-1.6-0.8-2.2s-1.3-0.9-2.2-0.9c-0.6,0-1.1,0.1-1.5,0.4c-0.5,0.3-0.8,0.6-1.1,1.1s-0.4,1-0.4,1.6
			s0.1,1.1,0.4,1.5c0.2,0.5,0.6,0.8,1,1.1C240.7,229.2,241.3,229.3,241.9,229.3z M240.3,224.3h1.5c0.5,0,0.9,0.1,1.2,0.4
			c0.3,0.2,0.4,0.6,0.4,1c0,0.5-0.2,0.9-0.6,1.1l0.8,1.4h-1.2l-0.6-1.1h-0.5v1.1h-1.1v-3.9H240.3z M241.4,226.1h0.4
			c0.2,0,0.4,0,0.5-0.1s0.1-0.2,0.1-0.4c0-0.3-0.2-0.4-0.6-0.4h-0.4V226.1z"/>
	</g>
	<g>
		<path class="st10" d="M47.1,20.2c-7.8,0-14.2,7.8-14.2,17.5l0.7,45.2L54,35.5c2-4.7,2-9.1,0-12C52.7,21.4,50.2,20.2,47.1,20.2z"/>
		<path class="st10" d="M262.6,102.8c-3.8,0-7.6,3.3-9.8,8.7l-19.1,47.9l32.4-31.4c3.3-3.3,5.4-7.5,5.8-11.9
			c0.4-4.2-0.8-7.9-3.5-10.5C266.7,103.7,264.7,102.8,262.6,102.8z"/>
		<path class="st10" d="M9.4,102.8c-2,0-4.1,0.9-5.9,2.7c-2.6,2.6-3.8,6.4-3.5,10.5c0.4,4.3,2.5,8.5,5.8,11.9l32.4,31.4l-19.1-47.9
			C17,106.1,13.2,102.8,9.4,102.8z"/>
		<path class="st10" d="M176.4,210.1l45.2,0.7c9.7,0,17.5-6.4,17.5-14.2c0-5.2-3.2-8.4-8.5-8.4c-2.1,0-4.4,0.5-6.7,1.5L176.4,210.1z
			"/>
		<path class="st10" d="M224.9,20.2c-3.1,0-5.5,1.1-6.9,3.3c-1.9,2.9-1.9,7.3,0,12l20.4,47.4l0.7-45.2
			C239,28.1,232.7,20.2,224.9,20.2z"/>
		<path class="st10" d="M16.4,148.7c-3.2,0-5.8,1.9-7.2,5.3c-1.4,3.4-1.1,7.4,0.8,11.1c2,3.8,5.5,6.9,9.9,8.7c0,0,41.2,16.6,42,16.6
			c-0.3-0.7-36-37-36-37C22.9,150.4,19.5,148.7,16.4,148.7z"/>
		<path class="st10" d="M255.6,148.7c-3.1,0-6.5,1.7-9.6,4.8l-36,37l42-16.6c4.4-1.8,7.9-4.9,9.9-8.7c2-3.7,2.3-7.6,0.8-11.1
			C261.4,150.5,258.9,148.7,255.6,148.7z"/>
		<path class="st10" d="M195.9,0c-1.4,0-2.8,1.5-3.8,4.1c-3.1,7.4,0.2,19.6,7.2,26.5l19.5,18.5L202,7.2C199.8,1.9,197.3,0,195.9,0z"
			/>
		<path class="st10" d="M76.1,0c-1.5,0-4,1.9-6.2,7.2l-16.6,42l19.5-18.5c7-7,10.2-19.1,7.2-26.5C78.9,1.5,77.5,0,76.1,0z"/>
		<path class="st10" d="M20.6,57.7c-1.2,0-2.4,0.3-3.7,0.8c-3.4,1.4-6,4.4-7.2,8.4c-1.3,4.1-1,8.8,0.8,13.2l17.9,41.5L29.1,70
			C29.1,62.7,25.7,57.7,20.6,57.7z"/>
		<path class="st10" d="M251.4,57.7c-5.1,0-8.5,4.9-8.5,12.3l0.7,51.6l17.9-41.5c1.8-4.4,2.1-9,0.8-13.2c-1.2-4-3.8-7-7.2-8.4
			C253.9,58,252.6,57.7,251.4,57.7z"/>
		<g>
			<path class="st10" d="M66.8,54.9H61v-3h15.2v3h-5.8v15h-3.6C66.8,69.9,66.8,54.9,66.8,54.9z"/>
			<path class="st10" d="M79.2,51.9H85c2.1,0,3.7,0.5,4.9,1.5c1.2,1,1.8,2.4,1.8,4.2c0,1.1-0.3,2-0.8,2.9c-0.5,0.8-1.3,1.5-2.2,2
				l4.8,7.4h-4.1l-3.9-6.5c-0.3,0-0.5,0-0.7,0s-0.4,0-0.5,0h-1.7v6.4h-3.5L79.2,51.9L79.2,51.9z M82.6,60.6h1.8c2.5,0,3.7-1,3.7-2.9
				c0-0.9-0.3-1.6-0.9-2.1s-1.5-0.7-2.7-0.7h-1.9V60.6z"/>
			<path class="st10" d="M101.8,51.9h3.8l7.2,18H109l-1.7-4.7H100l-1.7,4.7h-3.6L101.8,51.9z M106.2,62.4l-2.7-7.3l-2.6,7.3H106.2z"
				/>
			<path class="st10" d="M111.3,51.9h4l4.8,14.1l4.8-14.1h3.9l-6.8,18h-3.8L111.3,51.9z"/>
			<path class="st10" d="M131.4,51.9h11.9v3h-8.4v4.3h7.4v3h-7.4v4.6h8.7v3h-12.2V51.9z"/>
			<path class="st10" d="M147.3,51.9h3.6v15h8.2v3h-11.8V51.9z"/>
			<path class="st10" d="M162.1,51.9H174v3h-8.4v4.3h7.4v3h-7.4v4.6h8.7v3h-12.2V51.9z"/>
			<path class="st10" d="M178,51.9h5.9c2.1,0,3.7,0.5,4.9,1.5s1.8,2.4,1.8,4.2c0,1.1-0.3,2-0.8,2.9c-0.5,0.8-1.3,1.5-2.2,2l4.8,7.4
				h-4.1l-3.9-6.5c-0.3,0-0.5,0-0.7,0s-0.4,0-0.5,0h-1.7v6.4H178V51.9z M181.5,60.6h1.8c2.5,0,3.7-1,3.7-2.9c0-0.9-0.3-1.6-0.9-2.1
				c-0.6-0.5-1.5-0.7-2.7-0.7h-1.9L181.5,60.6L181.5,60.6z"/>
			<path class="st10" d="M200.1,70.3c-1.1,0-2.3-0.1-3.4-0.4c-1.1-0.3-2-0.6-2.7-1.1l0.4-3.1c0.8,0.5,1.6,0.9,2.7,1.2
				c1,0.3,2,0.4,2.9,0.4c1.1,0,1.9-0.2,2.5-0.6s0.9-1,0.9-1.7c0-0.6-0.2-1.1-0.7-1.5s-1.4-0.8-2.8-1.2c-2-0.6-3.4-1.4-4.2-2.2
				c-0.8-0.9-1.3-2-1.3-3.4c0-1,0.3-1.9,0.8-2.7s1.3-1.4,2.2-1.8c1-0.4,2.1-0.7,3.4-0.7c0.9,0,1.9,0.1,2.8,0.4s1.8,0.6,2.5,1l-0.5,3
				c-0.7-0.4-1.4-0.7-2.3-1c-0.9-0.2-1.7-0.4-2.5-0.4c-1,0-1.8,0.2-2.3,0.5c-0.5,0.4-0.8,0.9-0.8,1.6c0,0.4,0.1,0.8,0.3,1.1
				s0.5,0.5,1,0.7c0.4,0.2,1.1,0.5,1.9,0.7c2.1,0.7,3.7,1.5,4.6,2.3c0.9,0.9,1.4,2,1.4,3.4c0,1.7-0.6,3-1.8,3.9
				C203.9,69.8,202.2,70.3,200.1,70.3z"/>
			<path class="st10" d="M208.6,57.8c0.6-1.8,1-3.8,1-5.9h3.1c0,1-0.2,2-0.5,3.1c-0.3,1-0.7,2-1.1,2.8
				C211.1,57.8,208.6,57.8,208.6,57.8z"/>
		</g>
		<g>
			<path class="st10" d="M75.3,104.9c-2.8,0-5.2-0.5-7.3-1.6c-2.1-1.1-3.8-2.7-5-4.7c-1.2-2.1-1.8-4.5-1.8-7.2c0-2.6,0.6-5,1.8-7.1
				c1.2-2.1,2.9-3.7,5.1-5c2.2-1.2,4.7-1.8,7.6-1.8c1.4,0,2.9,0.2,4.4,0.6s2.8,0.9,3.9,1.6l-1,4.5c-2.5-1.3-5-1.9-7.4-1.9
				c-1.7,0-3.3,0.4-4.6,1.1c-1.4,0.7-2.4,1.8-3.2,3.1c-0.8,1.4-1.2,2.9-1.2,4.8c0,2.7,0.8,4.9,2.5,6.5c1.6,1.6,3.8,2.4,6.6,2.4
				c1.2,0,2.5-0.2,3.9-0.5c1.4-0.4,2.7-0.8,3.9-1.5l0.6,4.6c-1.2,0.7-2.6,1.2-4.1,1.6C78.4,104.8,76.9,104.9,75.3,104.9z"/>
			<path class="st10" d="M89.3,77.9h5.4v10.7h12.8V77.9h5.4v26.6h-5.4V93H94.6v11.5h-5.4V77.9H89.3z"/>
			<path class="st10" d="M131.8,105.1c-2.6,0-4.9-0.6-7-1.7c-2.1-1.2-3.8-2.8-5.1-4.9c-1.3-2.1-1.9-4.5-1.9-7.2
				c0-2.5,0.6-4.8,1.8-6.9c1.2-2.1,2.8-3.8,5-5.1c2.1-1.3,4.6-1.9,7.3-1.9c2.6,0,5,0.6,7.1,1.7s3.8,2.8,5.1,4.9s1.9,4.5,1.9,7.2
				c0,2.5-0.6,4.8-1.8,6.9s-2.8,3.8-5,5.1C136.9,104.5,134.5,105.1,131.8,105.1z M131.8,100.4c1.6,0,3-0.4,4.3-1.1s2.3-1.8,3.1-3.2
				c0.8-1.4,1.1-3,1.1-4.8c0-1.7-0.4-3.2-1.1-4.6c-0.7-1.4-1.7-2.5-3-3.3s-2.8-1.2-4.5-1.2c-1.6,0-3,0.4-4.3,1.1s-2.3,1.8-3.1,3.2
				c-0.8,1.4-1.1,3-1.1,4.8c0,1.7,0.4,3.2,1.1,4.6s1.7,2.5,3,3.3C128.6,100,130.1,100.4,131.8,100.4z"/>
			<path class="st10" d="M150.8,77.9h5.4v26.6h-5.4V77.9z"/>
			<path class="st10" d="M175.2,104.9c-2.8,0-5.2-0.5-7.3-1.6s-3.8-2.7-5-4.7c-1.2-2.1-1.8-4.5-1.8-7.2c0-2.6,0.6-5,1.8-7.1
				s2.9-3.7,5.1-5c2.2-1.2,4.7-1.8,7.6-1.8c1.4,0,2.9,0.2,4.4,0.6s2.8,0.9,3.9,1.6l-0.9,4.5c-2.5-1.3-5-1.9-7.4-1.9
				c-1.7,0-3.3,0.4-4.6,1.1c-1.4,0.7-2.4,1.8-3.2,3.1c-0.8,1.4-1.2,2.9-1.2,4.8c0,2.7,0.8,4.9,2.5,6.5c1.6,1.6,3.8,2.4,6.6,2.4
				c1.2,0,2.5-0.2,3.9-0.5c1.4-0.4,2.7-0.8,3.9-1.5l0.6,4.6c-1.2,0.7-2.6,1.2-4.1,1.6C178.4,104.8,176.8,104.9,175.2,104.9z"/>
			<path class="st10" d="M189.2,77.9h17.6v4.5h-12.4v6.4h11v4.4h-11v6.8h12.9v4.5h-18.1V77.9z"/>
		</g>
	</g>
	<g>
		<path class="st3" d="M106.5,276.5h-17c-0.8,0.1-1.2,0.5-1.3,1.3v16.9c0.1,0.8,0.5,1.2,1.3,1.3h17l0,0c0.7-0.1,1.1-0.5,1.2-1.3
			v-16.9C107.6,277,107.2,276.6,106.5,276.5z M90.2,285.1v-6.2c0-0.6,0.3-0.6,0.5-0.6h6.1v6.8L90.2,285.1L90.2,285.1z M90.2,293.7
			V287h6.5v7.2h-6.1C90.4,294.2,90.2,294,90.2,293.7z M98.8,285.1v-6.8h6.5c0.2,0,0.5,0.1,0.5,0.6v6.2L98.8,285.1L98.8,285.1z
			 M98.8,294.2V287h7v6.8c0,0.3-0.2,0.5-0.5,0.5L98.8,294.2L98.8,294.2z"/>
		<path class="st3" d="M109,268.5h-5.8v-3.8c-0.1-0.5-0.5-0.8-1-0.9l0,0l0,0c-0.5,0.1-0.8,0.4-0.9,0.9v3.8h-6.8v-3.7
			c0-0.7-0.4-1.1-1.1-1.1c-0.6,0-1,0.4-1.1,1.1v3.7h-5.1c-0.5,0.1-0.8,0.5-0.9,1.1c0,0.4,0.2,0.8,0.9,0.8h5.1v3.6
			c0.1,0.6,0.4,0.9,1,1l0,0l0,0c0.7-0.1,1-0.5,1-1.1v-3.5h6.8v3.7c0.1,0.5,0.4,0.8,0.9,0.9l0,0l0,0c0.6-0.1,0.9-0.4,1-0.9v-3.7h5.8
			c0.5,0,0.8-0.3,0.8-0.8C109.8,268.7,109.4,268.5,109,268.5z"/>
		<path class="st3" d="M85.6,265.5c-0.5-0.3-1-0.2-1.4,0.3c-0.1,0.1-0.2,0.3-0.4,0.6c-1,1.6-1.8,2.8-2.4,3.5
			c-0.9-1.6-2.1-3.3-3.6-4.8c-0.4-0.5-0.9-0.5-1.4,0c-0.2,0.1-0.4,0.3-0.4,0.5s0,0.5,0.3,0.7c1.5,1.6,2.7,3.4,3.6,5.1
			c-1.1,1.1-2.4,2.1-3.7,3c-0.2,0.1-0.4,0.3-0.4,0.5c-0.1,0.2,0,0.5,0.3,0.9c0.4,0.4,0.9,0.5,1.4,0.1c1.3-0.8,2.4-1.7,3.3-2.6
			c0.5,1.4,0.9,3.2,1.2,5.3c-1.7,2.8-3.6,4.9-5.8,6.4c-0.2,0.2-0.4,0.5-0.4,0.7s0.1,0.5,0.3,0.7c0.2,0.3,0.5,0.5,0.9,0.5
			c0.2,0,0.4-0.1,0.6-0.2c2.1-1.6,3.7-3.4,4.9-5.2c0.1,2.2,0.1,4.9,0.1,7.8c0.1,2.5-0.3,4.2-1.1,5.1c-0.4,0.5-1,0.7-1.7,0.7
			c-0.1,0-0.3,0-0.4,0h-2.2c-0.4,0.1-0.6,0.2-0.8,0.4c-0.1,0.2-0.2,0.4-0.1,0.7c0.2,0.7,0.6,1,1.2,1s1.4,0,2.2-0.1
			c0.1,0,0.2,0,0.3,0c1.2,0,2.2-0.4,3-1.2c1.2-1.2,1.8-3.5,1.6-6.7c0.1-8-0.6-13.9-2.1-17.4c1.2-1.4,2.4-3.1,3.6-5
			c0.2-0.3,0.2-0.6,0.1-0.8C86,265.7,85.8,265.5,85.6,265.5z"/>
		<path class="st3" d="M125.6,271.3L125.6,271.3c0.3,0.3,0.7,0.4,1,0.4c0.2,0,0.5-0.1,0.7-0.3c0.5-0.5,0.5-1,0.1-1.5
			c-0.8-1.1-2.1-2.7-3.9-4.6c-0.5-0.4-1-0.4-1.5-0.1c-0.5,0.4-0.6,0.9-0.1,1.4C123.2,268.1,124.5,269.7,125.6,271.3z"/>
		<path class="st3" d="M128.5,290.7L128.5,290.7c0.3,0.2,0.6,0.2,0.8,0.2s0.5-0.1,0.7-0.2c2-2,3.7-3.9,4.9-5.5
			c0.2-0.3,0.3-0.6,0.2-0.9c0-0.2-0.2-0.4-0.4-0.5c-0.6-0.3-1.1-0.2-1.5,0.2c-1.5,1.9-3.1,3.6-4.7,5.2l0,0
			C128.2,289.7,128.2,290.2,128.5,290.7L128.5,290.7z"/>
		<path class="st3" d="M146.7,284c-0.5-0.4-1-0.4-1.4-0.1c-0.5,0.4-0.5,0.9-0.1,1.4c0.5,0.5,1.3,1.4,2.4,2.6c1,1.2,1.8,2.1,2.2,2.6
			c0.2,0.2,0.4,0.4,0.7,0.4c0.2,0,0.4-0.1,0.7-0.2l0,0c0.5-0.5,0.5-1,0.1-1.5C149.4,287,147.9,285.2,146.7,284z"/>
		<path class="st3" d="M128.5,275.4c0.4,0.3,0.7,0.5,1.1,0.5c0.1,0,0.2,0,0.3,0l0,0c4.3-2.5,7.7-5.4,10.2-8.7c0.3-0.4,0.7-0.4,1,0
			c2.2,3.4,5.6,6.2,10.1,8.3c0.6,0.3,1.1,0.2,1.6-0.3l0,0c0.4-0.9,0-1.3-0.3-1.5c-4.4-1.9-7.9-4.7-10.2-8.1c-0.7-1-1.3-1.4-1.9-1.4
			c-0.5,0-1,0.4-1.6,1.3c-2.5,3.4-5.9,6.3-10.2,8.6C128.3,274.2,128.2,274.6,128.5,275.4L128.5,275.4z"/>
		<path class="st3" d="M150.8,280.1h-9.4v-4.4h5.1c0.5-0.1,0.8-0.4,0.9-0.9l0,0l0,0c-0.1-0.5-0.4-0.8-0.9-0.9h-12.3
			c-0.5,0.1-0.8,0.4-0.9,0.9l0,0l0,0c0.1,0.5,0.4,0.8,0.9,0.9h5.1v4.4h-9.8c-0.8,0-0.9,0.4-0.9,0.8c0.1,0.6,0.4,0.9,0.9,1h9.8v7
			c0,0.5-0.1,1-0.3,1.2c-0.3,0.3-0.8,0.5-1.5,0.5h-2.7c-0.3,0.1-0.6,0.2-0.7,0.3c-0.1,0.2-0.1,0.4-0.1,0.6c0.2,0.6,0.6,0.9,1.2,1
			h2.4l0,0c1.4,0,2.5-0.4,3.1-1.1c0.5-0.6,0.8-1.3,0.7-2.3v-7.3h9.4c0.5-0.1,0.8-0.4,0.9-1.1C151.7,280.5,151.5,280.1,150.8,280.1z"
			/>
		<path class="st3" d="M152.2,294.9c-8.9,0-14.9,0-17.9-0.1c-3.8-0.1-6.7-1.4-8.7-3.9v-13.2c-0.1-0.8-0.5-1.2-1.3-1.3h-4.2
			c-0.6,0-1,0.4-1.1,1l0,0l0,0c0.1,0.5,0.4,0.8,1.1,0.9h2.9c0.3,0,0.5,0.2,0.5,0.5v11.8c-0.3,0.4-0.8,1-1.7,1.8
			c-1.2,1.4-2.1,2.4-2.5,2.9c-0.3,0.5-0.2,1,0.1,1.5l0,0c0.2,0.1,0.5,0.2,0.7,0.2c0.3,0,0.6-0.1,0.8-0.4c0.7-1,1.8-2.3,3.2-4
			c0.2-0.2,0.4-0.2,0.6,0c2,2.6,5.1,4,9.3,4.1h6.6c5.3,0.1,8.9,0.1,11,0.1c0.7,0,1.2-0.3,1.5-0.9l0,0c0-0.3,0-0.5-0.1-0.7
			C152.8,295.1,152.6,295,152.2,294.9z"/>
		<path class="st3" d="M189.8,294.2c0.6-0.1,0.8-0.5,0.8-0.8l0,0c-0.1-0.3-0.4-0.5-0.8-0.6h-21.2l0,0c-0.4,0.1-0.7,0.3-0.8,0.6l0,0
			c0,0.4,0.3,0.7,0.8,0.8H189.8L189.8,294.2z"/>
		<path class="st3" d="M195.2,267.1h-12.8c0-0.2-0.1-0.4-0.1-0.8c-0.2-1-0.3-1.7-0.4-2c-0.2-0.5-0.6-0.8-1-0.8c-0.1,0-0.1,0-0.2,0
			c-0.3,0-0.5,0.2-0.6,0.3c-0.1,0.2-0.2,0.4-0.1,0.7c0.2,0.6,0.4,1.4,0.5,2.4h-13.2c-0.9,0-1.3,0.4-1.3,1.2v10.2c0,5-0.2,8.7-0.6,11
			c-0.4,2.3-1.2,4.5-2.5,6.5c-0.3,0.5-0.2,1,0.1,1.5l0,0c0.2,0.1,0.4,0.2,0.6,0.2c0.3,0,0.6-0.2,0.9-0.5c1.3-2.3,2.2-4.8,2.7-7.3
			s0.7-6.3,0.7-11.2v-9.6c0.1-0.4,0.2-0.6,0.5-0.6h26.8c0.5,0,0.8-0.3,0.8-0.8C196,267.5,195.9,267.1,195.2,267.1z"/>
		<path class="st3" d="M194.1,289.6h-19.7c-0.2-0.1-0.4-0.2-0.5-0.5v-3.5c0.1-0.3,0.2-0.5,0.5-0.5H190c0.2,0,0.3,0.1,0.4,0.2
			c0,0.1,0,0.1,0,0.2v0.2c0,0.4,0,0.7-0.2,0.9c-0.2,0.2-0.5,0.3-1,0.3c-0.1,0-0.2,0-0.3,0h-3.5c-0.2,0.1-0.4,0.1-0.4,0.3
			c-0.1,0.1-0.1,0.3,0,0.5c0.1,0.3,0.4,0.5,0.9,0.6h3.5c0.1,0,0.2,0,0.3,0c1.6,0,2.5-0.8,2.7-2.3l0.1-1.1c0-0.8-0.4-1.2-1.2-1.2
			h-9.7l0.2-0.7c0.1-0.2,0.1-0.4,0-0.6s-0.3-0.4-0.6-0.5c-0.4-0.1-0.8,0.1-1.1,0.5l0,0v0.1l-0.5,1.2h-6.4c-0.9,0-1.3,0.4-1.3,1.2
			v4.9c0.1,0.8,0.5,1.2,1.3,1.3h19.5c0.3,0,0.5,0.2,0.5,0.5c0,0.2,0,0.5-0.1,1c0,0.4,0,0.7-0.1,1l0,0l0,0c0,0.7-0.1,1.3-0.5,1.7
			c-0.4,0.4-1,0.6-1.9,0.6c-0.2,0-0.4,0-0.6,0c-2.1,0-3.7,0-4.7-0.1l0,0l0,0c-0.3,0-0.4,0.2-0.5,0.3c-0.1,0.2-0.1,0.4-0.1,0.6
			c0.2,0.6,0.5,0.9,0.9,0.9c0.5,0,1.4,0,2.7-0.1h2.1c0.1,0,0.2,0,0.3,0c2.7,0,4.2-1.2,4.4-3.4c0-0.4,0-0.9,0.1-1.5
			c0-0.7,0-1.2,0.1-1.5l0,0l0,0C195.2,290.1,194.8,289.7,194.1,289.6z"/>
		<path class="st3" d="M183.4,287.5c-0.1,0-0.1,0-0.2-0.1l0,0c-1.8-0.8-3-1.3-3.8-1.5c-0.3-0.2-0.7-0.1-1.1,0.3l0,0l0,0
			c-0.1,0.4,0,0.7,0.3,0.9c1.1,0.6,2.4,1.1,3.9,1.7c0.2,0.1,0.4,0.2,0.5,0.2c0.3,0,0.5-0.2,0.7-0.5l0,0
			C183.8,288,183.7,287.7,183.4,287.5L183.4,287.5L183.4,287.5z"/>
		<path class="st3" d="M195.1,280.2h-6.9v-1.7h6.1c0.4-0.1,0.6-0.3,0.6-0.6c0-0.4-0.2-0.6-0.6-0.6h-6.1v-1.7h6.1
			c0.5-0.1,0.6-0.4,0.6-0.6c0-0.4-0.2-0.6-0.6-0.6h-6.1v-1.7h6.8c0.3,0,0.6-0.1,0.6-0.8c0-0.4-0.2-0.6-0.6-0.6h-6.5
			c0-0.2-0.1-0.5-0.3-0.9c-0.1-0.7-0.2-0.9-0.3-1c-0.2-0.4-0.5-0.6-0.9-0.6c-0.1,0-0.2,0-0.3,0l0,0c-0.5,0.3-0.7,0.7-0.6,1.2l0,0
			c0.2,0.3,0.3,0.8,0.5,1.3h-6.3c0.1-0.1,0.2-0.3,0.3-0.6c0.1-0.3,0.2-0.4,0.3-0.5l0,0l0,0c0.1-0.5-0.1-0.9-0.5-1.1
			c-0.5-0.3-0.9-0.1-1.2,0.6c-1,2.1-2.6,4.4-4.7,6.7c-0.3,0.4-0.3,0.8,0,1.2l0,0c0.4,0.3,0.8,0.3,1.2-0.1c0.7-0.7,1.4-1.4,2-2.2v6.6
			c0,0.4,0.2,0.8,0.9,0.8c0.8,0,0.9-0.4,0.9-0.8v-0.3h15.6c0.5-0.1,0.6-0.4,0.6-0.6C195.7,280.5,195.5,280.2,195.1,280.2z
			 M186.3,278.6v1.7h-6.8v-1.7H186.3z M186.3,275.7v1.7h-6.8v-1.7H186.3z M186.3,272.7v1.7h-6.8v-1.7H186.3z"/>
		<path class="st3" d="M169.9,277.6c0.7-0.7,1.3-1.4,2-2.2v6.3c0.1,0.5,0.4,0.8,0.9,0.9l0,0l0,0c0.5-0.1,0.8-0.4,0.9-0.9v-8.8
			c0.7-1,1.4-2.1,1.9-3.1c0.2-0.5,0-0.9-0.5-1.1s-0.9,0-1.2,0.5c-1.4,2.7-3.2,5.1-5.4,7.1c-0.3,0.4-0.3,0.8,0,1.2l0,0
			C169,277.9,169.5,277.9,169.9,277.6z"/>
	</g>
</g>
</svg>
